<?xml version="1.0" standalone="no"?>
<!DOCTYPE svg PUBLIC "-//W3C//DTD SVG 20010904//EN"
 "http://www.w3.org/TR/2001/REC-SVG-20010904/DTD/svg10.dtd">
<svg version="1.0" xmlns="http://www.w3.org/2000/svg"
 width="512.000000pt" height="512.000000pt" viewBox="0 0 512.000000 512.000000"
 preserveAspectRatio="xMidYMid meet">
<metadata>
Created by potrace 1.14, written by Peter Selinger 2001-2017
</metadata>
<g transform="translate(0.000000,512.000000) scale(0.100000,-0.100000)"
fill="#000000" stroke="none">
<path d="M3689 4373 c-18 -15 -142 -136 -275 -269 -172 -171 -244 -250 -248
-270 -4 -18 2 -66 15 -119 11 -50 22 -97 24 -105 2 -8 13 -52 24 -97 12 -45
21 -90 21 -100 0 -10 -175 -193 -426 -444 -403 -403 -426 -428 -431 -468 -5
-36 -2 -46 22 -71 32 -33 60 -42 98 -32 17 4 184 163 451 430 l424 422 148
-36 c179 -43 157 -38 227 -53 32 -7 70 -10 84 -6 27 6 531 502 552 542 33 64
-9 130 -94 147 -11 2 -97 23 -192 46 l-171 41 -47 197 c-50 208 -63 245 -92
257 -45 20 -80 16 -114 -12z m50 -468 c1 -13 -54 -75 -158 -179 l-158 -158
-22 93 c-13 52 -24 100 -26 106 -3 7 69 85 158 173 l162 160 22 -87 c12 -49
22 -97 22 -108z m291 -200 c41 -10 76 -18 78 -20 1 -1 -70 -75 -159 -164 -112
-112 -166 -160 -177 -157 -10 3 -48 12 -87 21 -38 8 -81 18 -94 21 -22 5 -10
20 138 168 158 158 164 163 195 156 17 -4 65 -15 106 -25z"/>
<path d="M2310 4264 c-140 -16 -160 -19 -280 -50 -429 -111 -825 -405 -1060
-789 -95 -155 -205 -428 -226 -564 -3 -20 -8 -39 -9 -42 -19 -30 -28 -474 -12
-569 4 -25 10 -58 13 -75 118 -662 608 -1204 1264 -1396 36 -11 81 -22 100
-25 19 -3 53 -9 75 -14 117 -25 392 -34 515 -17 232 32 402 82 572 167 206
104 332 194 483 345 246 246 413 548 483 876 26 120 31 158 39 299 l6 116 -32
32 c-53 52 -135 39 -159 -26 -6 -15 -13 -74 -16 -132 -3 -58 -8 -118 -11 -135
-72 -377 -201 -636 -441 -879 -307 -311 -718 -480 -1149 -471 -82 2 -166 6
-185 9 -19 4 -64 11 -100 17 -181 31 -439 144 -611 266 -303 217 -522 538
-613 899 -35 140 -48 249 -47 404 0 127 2 164 15 228 3 15 7 43 10 62 18 122
115 372 200 510 168 274 443 516 717 631 92 38 209 79 209 73 0 -3 8 0 18 5 9
5 31 11 47 14 17 3 50 10 75 15 49 12 146 21 253 26 79 4 116 25 129 72 11 38
3 67 -26 99 -30 32 -86 36 -246 19z"/>
<path d="M2419 3716 c-2 -2 -33 -6 -69 -9 -442 -39 -843 -352 -1009 -785 -58
-152 -76 -259 -74 -442 1 -107 9 -165 37 -299 24 -113 119 -308 202 -417 72
-95 156 -180 234 -238 30 -22 57 -43 60 -46 10 -12 79 -51 146 -84 198 -96
341 -127 569 -122 156 4 163 5 285 36 391 100 719 408 850 798 36 108 60 243
62 346 1 77 0 80 -31 108 -42 38 -90 38 -132 0 -28 -25 -32 -36 -35 -88 -3
-55 -12 -140 -19 -174 -20 -95 -64 -224 -97 -282 -138 -241 -347 -417 -588
-497 -120 -39 -206 -51 -350 -47 -156 5 -175 8 -291 46 -308 102 -547 341
-652 650 -39 117 -51 193 -51 340 0 111 6 156 35 258 74 263 261 497 501 627
132 71 280 111 446 120 81 5 114 21 132 65 28 69 -17 129 -102 136 -30 2 -56
2 -59 0z"/>
<path d="M2383 3198 c-15 -5 -40 -10 -56 -13 -85 -16 -197 -70 -277 -133 -328
-261 -365 -729 -82 -1042 86 -96 232 -181 359 -211 26 -6 89 -13 138 -15 244
-10 476 109 614 316 72 107 108 212 118 349 5 76 5 77 -27 109 -43 44 -96 45
-138 3 -25 -26 -30 -39 -35 -103 -28 -374 -428 -590 -761 -410 -150 81 -256
266 -257 447 0 133 44 244 137 344 85 92 221 159 338 166 23 1 49 3 58 4 26 2
67 45 74 78 7 36 -16 87 -48 104 -26 14 -114 18 -155 7z"/>
</g>
</svg>
